<svg width="88" height="88" viewBox="0 0 88 88" fill="none" xmlns="http://www.w3.org/2000/svg">
<path d="M26.0154 27.9981C26.103 27.0326 26.8933 26.1901 27.8482 26.0364C28.5969 25.8919 29.3796 26.1886 29.8977 26.7344C34.6011 31.4296 39.2953 36.134 43.9987 40.8292C48.7021 36.134 53.3978 31.4296 58.0997 26.7328C58.6963 26.0933 59.6634 25.8212 60.4937 26.1256C61.5438 26.4699 62.2142 27.666 61.9375 28.7407C61.7945 29.4571 61.2194 29.9475 60.7274 30.4379C56.2085 34.9579 51.6834 39.4732 47.1692 43.9993C51.6834 48.5269 56.1977 53.0514 60.7135 57.576C61.2056 58.0649 61.7745 58.5614 61.9098 59.2779C62.1896 60.4109 61.4178 61.6608 60.2861 61.9299C59.5004 62.1451 58.644 61.8484 58.092 61.2672C53.3871 56.569 48.6898 51.863 43.9833 47.1663C39.2553 51.8845 34.5365 56.6136 29.8055 61.3318C29.0182 62.182 27.5699 62.2097 26.7365 61.4102C25.7924 60.6092 25.7648 59.0273 26.6581 58.1771C31.3738 53.4435 36.1095 48.7283 40.8298 43.9977C36.131 39.2918 31.4245 34.595 26.7257 29.8906C26.2214 29.4064 25.9277 28.6992 26.0154 27.9981Z" fill="#FF7269"/>
<path opacity="0.5" d="M57.8441 85.4758C51.7031 87.5277 45.1013 88.2149 38.6744 87.4115C31.8 86.5682 25.1405 84.0517 19.4163 80.1584C10.9575 74.4582 4.6019 65.7033 1.89272 55.8641C-0.0658702 49.0752 -0.284801 41.8061 1.18044 34.8985C1.34912 34.0263 1.84785 33.2012 2.616 32.7325C3.55799 32.2334 4.75112 32.0754 5.70432 32.6369C6.98421 33.2706 7.62747 34.8412 7.2591 36.2057C5.55696 44.0705 6.54207 52.4709 9.94079 59.7595C12.4613 65.2574 16.3625 70.1123 21.1742 73.777C26.6727 77.9977 33.3708 80.6433 40.2734 81.3051C46.4593 81.9184 52.7919 80.9434 58.5156 78.5261C65.114 75.7814 70.8741 71.0776 74.9018 65.1759C79.3144 58.7484 81.6701 50.9228 81.4507 43.124C81.2998 36.6596 79.4475 30.2447 76.1287 24.6958C72.6248 18.8104 67.4596 13.9321 61.3894 10.7624C55.7437 7.7883 49.3259 6.28687 42.9471 6.48561C34.1278 6.70741 25.4148 10.1481 18.8785 16.0831C16.9454 17.8183 15.1913 19.7543 13.6709 21.8602C13.278 22.386 12.896 22.9676 12.2952 23.2762C11.4419 23.6383 10.4376 23.8669 9.55789 23.4516C8.25238 22.9562 7.53978 21.489 7.68965 20.1467C7.79539 19.2509 8.40323 18.5462 8.91734 17.8463C13.8753 11.1675 20.7778 5.94323 28.5834 3.05506C37.5857 -0.370131 47.725 -0.668617 56.914 2.21745C63.163 4.16044 68.9715 7.51556 73.7647 11.9717C78.5046 16.3573 82.2516 21.8137 84.6253 27.82C86.8113 33.3145 87.8735 39.2557 87.7104 45.1673C87.5087 52.7756 85.2528 60.3095 81.2795 66.7993C75.9831 75.52 67.54 82.2772 57.8441 85.4758Z" fill="#FF7269"/>
</svg>
