<svg width="88" height="88" viewBox="0 0 88 88" fill="none" xmlns="http://www.w3.org/2000/svg">
<path opacity="0.5" d="M41.334 0.32617C47.7969 -0.066408 54.3515 0.978514 60.3515 3.41797C66.7734 6.01172 72.5547 10.166 77.0762 15.4082C83.7715 23.1035 87.6445 33.2051 87.7148 43.4102C87.8496 50.4746 86.1797 57.5527 82.9765 63.8457C82.5879 64.6445 81.8926 65.3125 81.0293 65.5664C79.9902 65.8047 78.7969 65.6484 78.0215 64.8594C76.9492 63.916 76.7344 62.2324 77.4433 61.0098C81.123 53.8535 82.3457 45.4844 80.9492 37.5645C79.9375 31.6016 77.4258 25.9023 73.7265 21.1172C69.5078 15.6172 63.7226 11.3281 57.2265 8.90234C51.4101 6.70898 45.041 6.01172 38.8867 6.86523C31.8027 7.80859 25.0215 10.8613 19.6035 15.5195C13.6777 20.5859 9.37693 27.5352 7.57029 35.125C6.04295 41.4082 6.17185 48.084 7.94139 54.3027C9.80271 60.8945 13.5293 66.9434 18.5722 71.5762C23.2558 75.9102 29.0664 79.0215 35.2793 80.4805C43.8554 82.5488 53.1621 81.4805 61.0117 77.4394C63.3281 76.2637 65.5234 74.8477 67.5371 73.207C68.0527 72.8008 68.5722 72.3379 69.2324 72.1953C70.1504 72.0664 71.1797 72.1055 71.9219 72.7344C73.0547 73.5508 73.3633 75.1523 72.8711 76.4102C72.5371 77.248 71.7676 77.7715 71.0898 78.3145C64.5722 83.4824 56.5527 86.7422 48.2656 87.5117C38.6836 88.4902 28.8125 86.1543 20.6836 80.9883C15.1504 77.4941 10.4082 72.75 6.93162 67.2051C3.48826 61.7422 1.28123 55.502 0.542949 49.0859C-0.146505 43.2129 0.365214 37.1992 2.05271 31.5313C4.21678 24.2344 8.34568 17.541 13.8633 12.3008C21.2363 5.24804 31.1406 0.906248 41.334 0.32617Z" fill="#FFCC81"/>
<rect x="42" y="24" width="4" height="31" rx="2" fill="#FFCC81"/>
<rect x="41" y="58" width="6" height="6" rx="3" fill="#FFCC81"/>
</svg>
