<svg width="88" height="88" viewBox="0 0 88 88" fill="none" xmlns="http://www.w3.org/2000/svg">
<path opacity="0.5" d="M41.334 0.326124C47.7969 -0.0664538 54.3516 0.978468 60.3516 3.41792C66.7735 6.01167 72.5547 10.166 77.0762 15.4082C83.7715 23.1035 87.6446 33.205 87.7149 43.4101C87.8497 50.4746 86.1797 57.5527 82.9766 63.8457C82.5879 64.6445 81.8926 65.3125 81.0293 65.5664C79.9903 65.8046 78.7969 65.6484 78.0215 64.8593C76.9493 63.916 76.7344 62.2324 77.4434 61.0097C81.1231 53.8535 82.3457 45.4843 80.9493 37.5644C79.9375 31.6015 77.4258 25.9023 73.7266 21.1171C69.5079 15.6171 63.7227 11.3281 57.2266 8.9023C51.4102 6.70894 45.0411 6.01167 38.8868 6.86519C31.8028 7.80855 25.0215 10.8613 19.6036 15.5195C13.6778 20.5859 9.37699 27.5351 7.57035 35.125C6.04301 41.4082 6.17192 48.0839 7.94145 54.3027C9.80277 60.8945 13.5293 66.9433 18.5723 71.5761C23.2559 75.9101 29.0664 79.0214 35.2793 80.4804C43.8555 82.5488 53.1622 81.4804 61.0118 77.4394C63.3282 76.2636 65.5235 74.8476 67.5372 73.207C68.0528 72.8007 68.5723 72.3378 69.2325 72.1953C70.1504 72.0664 71.1797 72.1054 71.9219 72.7343C73.0547 73.5507 73.3633 75.1523 72.8711 76.4101C72.5372 77.248 71.7676 77.7714 71.0899 78.3144C64.5723 83.4824 56.5528 86.7421 48.2657 87.5117C38.6836 88.4902 28.8125 86.1542 20.6836 80.9882C15.1504 77.4941 10.4082 72.75 6.93168 67.205C3.48832 61.7421 1.28129 55.5019 0.54301 49.0859C-0.146444 43.2128 0.365275 37.1992 2.05278 31.5312C4.21684 24.2343 8.34574 17.541 13.8633 12.3007C21.2364 5.248 31.1407 0.906202 41.334 0.326124Z" fill="#45D075"/>
<path d="M63.2988 26.5859C63.8047 25.9531 64.5 25.4277 65.3242 25.3261C66.6719 25.0898 68.1582 25.8086 68.7149 27.0801C69.2266 28.1953 69.0098 29.5801 68.1797 30.4863C59.4668 40.8476 50.7637 51.2187 42.0527 61.582C41.2617 62.5664 39.8652 62.9902 38.6641 62.5898C37.8867 62.3593 37.3281 61.7422 36.7832 61.1797C31.1465 55.4218 25.4922 49.6816 19.8574 43.9238C18.7129 42.7754 18.7129 40.7324 19.875 39.5976C20.9922 38.3691 23.1113 38.334 24.2813 39.5039C28.8399 44.125 33.3613 48.7812 37.9121 53.4082C38.4336 53.9258 38.9024 54.4941 39.4766 54.959C47.4102 45.4941 55.3633 36.0468 63.2988 26.5859Z" fill="#45D075"/>
</svg>
