<svg width="88" height="88" viewBox="0 0 88 88" fill="none" xmlns="http://www.w3.org/2000/svg">
<path opacity="0.5" d="M87.6457 41.3378C88.0383 47.8007 86.9934 54.3554 84.5539 60.3554C81.9602 66.7772 77.8059 72.5585 72.5637 77.08C64.8684 83.7753 54.7668 87.6483 44.5617 87.7186C37.4973 87.8534 30.4192 86.1835 24.1262 82.9804C23.3274 82.5917 22.6594 81.8964 22.4055 81.0331C22.1672 79.994 22.3235 78.8007 23.1125 78.0253C24.0559 76.953 25.7395 76.7382 26.9621 77.4472C34.1184 81.1268 42.4875 82.3495 50.4075 80.953C56.3703 79.9413 62.0696 77.4296 66.8547 73.7304C72.3547 69.5116 76.6438 63.7265 79.0696 57.2304C81.2629 51.414 81.9602 45.0448 81.1067 38.8905C80.1633 31.8065 77.1106 25.0253 72.4524 19.6073C67.386 13.6815 60.4368 9.38075 52.8469 7.57411C46.5637 6.04676 39.8879 6.17567 33.6692 7.9452C27.0774 9.80653 21.0285 13.5331 16.3957 18.5761C12.0618 23.2597 8.95043 29.0702 7.49144 35.2831C5.42308 43.8593 6.49144 53.1659 10.5325 61.0155C11.7082 63.3319 13.1242 65.5272 14.7649 67.5409C15.1711 68.0565 15.634 68.5761 15.7766 69.2362C15.9055 70.1542 15.8664 71.1835 15.2375 71.9257C14.4211 73.0585 12.8196 73.3671 11.5618 72.8749C10.7239 72.5409 10.2004 71.7714 9.65745 71.0936C4.48949 64.5761 1.22972 56.5565 0.46019 48.2694C-0.518325 38.6874 1.81761 28.8163 6.98363 20.6874C10.4778 15.1542 15.2219 10.412 20.7668 6.93543C26.2297 3.49207 32.47 1.28504 38.886 0.546763C44.759 -0.14269 50.7727 0.369029 56.4407 2.05653C63.7375 4.22059 70.4309 8.3495 75.6711 13.8671C82.7239 21.2401 87.0657 31.1444 87.6457 41.3378Z" fill="#A1CFD9"/>
<path d="M41.7306 26.1876C44.8043 25.6562 48.0976 26.2504 50.6939 28.012C52.8267 29.4513 54.4193 31.7235 54.895 34.2658C55.3115 36.3916 54.9003 38.6446 53.8321 40.523C52.8093 42.384 51.1504 43.7553 49.6397 45.2033C48.5594 46.2209 47.4059 47.2734 46.8692 48.697C46.3987 49.8418 46.9389 51.1904 46.2454 52.269C45.5344 53.541 43.7519 54.0429 42.4956 53.2866C41.5546 52.7726 40.9953 51.7097 41.0615 50.6451C40.9378 48.338 41.6609 46.024 43.034 44.1735C44.3809 42.2899 46.214 40.8488 47.838 39.2231C48.6726 38.4076 49.4062 37.3761 49.4846 36.1755C49.5805 34.6822 48.6482 33.2813 47.4111 32.5163C45.808 31.537 43.785 31.3541 41.9885 31.8368C40.6259 32.1922 39.5194 33.236 38.9374 34.4993C38.5088 35.3478 38.4338 36.4142 37.6567 37.0537C36.6896 37.9528 35.0709 38.0173 34.0515 37.167C33.2326 36.5083 32.8144 35.3757 33.0792 34.3477C33.6961 31.9169 35.0691 29.636 37.0956 28.127C38.4495 27.1094 40.0631 26.4595 41.7306 26.1876Z" fill="#A1CFD9"/>
<path d="M42.9415 56.62C44.2483 56.1826 45.8758 56.7803 46.3951 58.1028C47.0119 59.4114 46.3933 61.1278 45.0708 61.7202C43.696 62.4294 41.8228 61.7324 41.2722 60.2827C40.6449 58.8765 41.4464 57.0434 42.9415 56.62Z" fill="#A1CFD9"/>
</svg>
