
        <svg xmlns="http://www.w3.org/2000/svg" xmlns:xlink="http://www.w3.org/1999/xlink" version="1.1" width="3187.5" 
        height="1352.3229668382999" viewBox="0 0 3187.5 1352.3229668382999">
			
			<g transform="scale(9.375) translate(10, 10)">
				<defs id="SvgjsDefs5058"><linearGradient id="SvgjsLinearGradient5063"><stop id="SvgjsStop5064" stop-color="#006838" offset="0"></stop><stop id="SvgjsStop5065" stop-color="#96cf24" offset="1"></stop></linearGradient></defs><g id="SvgjsG5059" featureKey="symbolFeature-0" transform="matrix(1.2820512820512822,0,0,1.2820512820512822,312.1794871794872,-447.61538461538464)" fill="url(#SvgjsLinearGradient5063)"><path xmlns="http://www.w3.org/2000/svg" d="M-167.5,390.5c-1.1,0-2-0.9-2-2c0-1.1,0.9-2,2-2c1.1,0,2,0.9,2,2C-165.5,389.6-166.4,390.5-167.5,390.5z   M-177.5,428.5c-2.2,0-4-1.8-4-4s1.8-4,4-4c2.2,0,4,1.8,4,4S-175.3,428.5-177.5,428.5z M-177.5,410.5c-2.2,0-4-1.8-4-4s1.8-4,4-4  c2.2,0,4,1.8,4,4S-175.3,410.5-177.5,410.5z M-177.5,392.5c-2.2,0-4-1.8-4-4c0-2.2,1.8-4,4-4c2.2,0,4,1.8,4,4  C-173.5,390.7-175.3,392.5-177.5,392.5z M-177.5,374.5c-2.2,0-4-1.8-4-4c0-2.2,1.8-4,4-4c2.2,0,4,1.8,4,4  C-173.5,372.7-175.3,374.5-177.5,374.5z M-194.5,414.5c-3.9,0-7-3.1-7-7c0-3.9,3.1-7,7-7c3.9,0,7,3.1,7,7  C-187.5,411.4-190.6,414.5-194.5,414.5z M-194.5,394.5c-3.9,0-7-3.1-7-7c0-3.9,3.1-7,7-7c3.9,0,7,3.1,7,7  C-187.5,391.4-190.6,394.5-194.5,394.5z M-195.5,374.5c-2.2,0-4-1.8-4-4c0-2.2,1.8-4,4-4c2.2,0,4,1.8,4,4  C-191.5,372.7-193.3,374.5-195.5,374.5z M-195.5,362.5c-1.1,0-2-0.9-2-2c0-1.1,0.9-2,2-2c1.1,0,2,0.9,2,2  C-193.5,361.6-194.4,362.5-195.5,362.5z M-214.5,414.5c-3.9,0-7-3.1-7-7c0-3.9,3.1-7,7-7s7,3.1,7,7  C-207.5,411.4-210.6,414.5-214.5,414.5z M-214.5,394.5c-3.9,0-7-3.1-7-7c0-3.9,3.1-7,7-7s7,3.1,7,7  C-207.5,391.4-210.6,394.5-214.5,394.5z M-213.5,374.5c-2.2,0-4-1.8-4-4c0-2.2,1.8-4,4-4c2.2,0,4,1.8,4,4  C-209.5,372.7-211.3,374.5-213.5,374.5z M-213.5,362.5c-1.1,0-2-0.9-2-2c0-1.1,0.9-2,2-2c1.1,0,2,0.9,2,2  C-211.5,361.6-212.4,362.5-213.5,362.5z M-231.5,374.5c-2.2,0-4-1.8-4-4c0-2.2,1.8-4,4-4c2.2,0,4,1.8,4,4  C-227.5,372.7-229.3,374.5-231.5,374.5z M-231.5,384.5c2.2,0,4,1.8,4,4c0,2.2-1.8,4-4,4c-2.2,0-4-1.8-4-4  C-235.5,386.3-233.7,384.5-231.5,384.5z M-241.5,408.5c-1.1,0-2-0.9-2-2c0-1.1,0.9-2,2-2c1.1,0,2,0.9,2,2  C-239.5,407.6-240.4,408.5-241.5,408.5z M-241.5,390.5c-1.1,0-2-0.9-2-2c0-1.1,0.9-2,2-2c1.1,0,2,0.9,2,2  C-239.5,389.6-240.4,390.5-241.5,390.5z M-231.5,402.5c2.2,0,4,1.8,4,4s-1.8,4-4,4c-2.2,0-4-1.8-4-4S-233.7,402.5-231.5,402.5z   M-231.5,420.5c2.2,0,4,1.8,4,4s-1.8,4-4,4c-2.2,0-4-1.8-4-4S-233.7,420.5-231.5,420.5z M-213.5,420.5c2.2,0,4,1.8,4,4  c0,2.2-1.8,4-4,4c-2.2,0-4-1.8-4-4C-217.5,422.3-215.7,420.5-213.5,420.5z M-213.5,432.5c1.1,0,2,0.9,2,2c0,1.1-0.9,2-2,2  c-1.1,0-2-0.9-2-2C-215.5,433.4-214.6,432.5-213.5,432.5z M-195.5,420.5c2.2,0,4,1.8,4,4c0,2.2-1.8,4-4,4c-2.2,0-4-1.8-4-4  C-199.5,422.3-197.7,420.5-195.5,420.5z M-195.5,432.5c1.1,0,2,0.9,2,2c0,1.1-0.9,2-2,2c-1.1,0-2-0.9-2-2  C-197.5,433.4-196.6,432.5-195.5,432.5z M-167.5,404.5c1.1,0,2,0.9,2,2c0,1.1-0.9,2-2,2c-1.1,0-2-0.9-2-2  C-169.5,405.4-168.6,404.5-167.5,404.5z" style="fill-rule: evenodd; clip-rule: evenodd;"></path></g><g id="SvgjsG5060" featureKey="nameFeature-0" transform="matrix(4.424778312941865,0,0,4.424778312941865,115.57522168705813,-52.920344571779175)" fill="#59a52c"><path d="M2.44 38.6 l0 -26.6 l-1.44 0 l0 28.04 l7 -0.04 l0 -11.44 l10.96 -13.88 l-1.84 0 l-10.6 13.36 l0 10.56 l-4.08 0 z M6.48 21.28 l1.48 -1.84 l0 -7.44 l-4.24 0 l0 12.84 l1.44 -1.84 l0 -9.52 l1.32 0 l0 7.8 z M24.44 12 l-8.84 0 l-11.88 15.24 l0 10.32 l1.44 0 l0 -9.84 l11.12 -14.24 l5.2 0 l-11.28 14.36 l7.2 9.72 l1.8 0 l-7.16 -9.72 z M21.6 38.6 l-5.08 0 l-7.16 -9.68 l0 2.4 l6.44 8.68 l8.68 0 l-9.8 -13.16 l-0.92 1.16 z M27.000000000000004 11.96 l1.48 0 l0 26.56 l3.96 0 l0 -9.64 l4.92 0 c1.8 0 3.28 -0.4 4.52 -1.24 c1.92 -1.16 2.92 -3.52 2.92 -6.6 c0 -4.96 -2.8 -7.6 -7.96 -7.6 l-5.72 0 l0 9.96 l5.12 0 c2.08 0 2.88 -0.64 2.88 -2.36 c0 -1.4 -0.68 -2.08 -2.08 -2.08 l-3.04 0 l0 3.24 l-1.48 0.04 l0 -4.68 l4.52 0 c2.2 0 3.44 1.28 3.44 3.48 c0 2.56 -1.4 3.84 -4.24 3.84 l-6.48 0 l0 -12.92 l7.08 0 c5.8 0 9.36 3.36 9.36 9.08 c0 5.92 -3.24 9.32 -8.84 9.32 l-3.44 0 l0 9.64 l-6.92 0 l0 -28.04 z M29.76 26.2 l6.72 0 c3.72 0 5.52 -1.6 5.52 -4.96 c0 -3.16 -1.72 -5 -4.48 -5 l-5 0 l0 -1.44 l5 0 c1.12 0 2.16 0.24 3.08 0.76 c1.88 1 2.84 3 2.84 5.68 c0 4.16 -2.32 6.36 -6.96 6.36 l-5.36 0 l0 10 l-1.36 0 l0 -11.4 z"></path></g>
			</g>
		</svg>
	